<svg xmlns="http://www.w3.org/2000/svg" width="24px" height="24px" viewBox="0 0 24 24" >
<path d="M14,19h-4c-0.276,0-0.5,0.225-0.5,0.5S9.724,20,10,20h4c0.275,0,0.5-0.225,0.5-0.5S14.275,19,14,19z"/>
<path d="M14,21h-4c-0.276,0-0.5,0.225-0.5,0.5S9.724,22,10,22h4c0.275,0,0.5-0.225,0.5-0.5S14.275,21,14,21z"/>
<path d="M14.25,23h-4.5l1.188,0.782C11.092,23.92,11.318,24,11.553,24h0.895c0.233,0,0.461-0.08,0.614-0.218L14.25,23z"/>
<path d="M11.997,3.429C8.998,3.429,6,5.478,6,9.201C6,12.77,9.214,15.184,9.214,18h5.572c0-2.816,3.214-5.23,3.214-8.799
	C18,5.48,14.998,3.429,11.997,3.429z M11.997,13.875c-2.578,0-4.666-2.089-4.666-4.666c0-2.578,2.088-4.667,4.666-4.667
	c2.576,0,4.666,2.089,4.666,4.667C16.663,11.786,14.573,13.875,11.997,13.875z"/>
</svg>
